<svg width="200" height="200" viewBox="0 0 200 200" fill="none" xmlns="http://www.w3.org/2000/svg">
<path d="M81.065 187C80.3916 187 79.7094 186.864 79.058 186.58C76.7779 185.586 75.5447 183.071 76.1434 180.636L93.3 110.849H47.0735C45.4003 110.849 43.8346 110.015 42.8885 108.62C41.9425 107.226 41.7382 105.449 42.3416 103.872L76.2537 15.2775C77.0096 13.3022 78.8895 12 80.9856 12H127.649C129.364 12 130.962 12.875 131.899 14.3263C132.835 15.7775 132.983 17.6085 132.292 19.1941L112.211 65.2545H151.926C153.782 65.2545 155.489 66.2782 156.379 67.9236C157.269 69.569 157.198 71.5739 156.195 73.1517L85.3363 184.643C84.378 186.151 82.7488 187 81.065 187Z" fill="url(#paint0_radial_43_9)"/>
<defs>
<radialGradient id="paint0_radial_43_9" cx="0" cy="0" r="1" gradientUnits="userSpaceOnUse" gradientTransform="translate(99.5 50.1818) rotate(90) scale(136.818 89.9091)">
<stop stop-color="#FF9B54"/>
<stop offset="1" stop-color="#FF7F51"/>
</radialGradient>
</defs>
</svg>
