<svg width="200" height="200" viewBox="0 0 200 200" fill="none" xmlns="http://www.w3.org/2000/svg">
<path d="M112.652 146.757C110.599 148.543 108.191 149.871 105.586 150.656C102.981 151.44 100.239 151.662 97.5424 151.307C94.1731 150.879 90.9865 149.532 88.3314 147.413C85.6763 145.295 83.655 142.488 82.4885 139.298C79.785 131.473 83.5761 124.259 89.3119 113.344C93.4531 105.829 97.0467 98.0261 100.065 89.9946C103.048 98.0319 106.625 105.836 110.765 113.344C115.066 121.543 118.477 128.017 118.477 134.078C118.472 136.486 117.95 138.864 116.945 141.052C115.94 143.24 114.476 145.186 112.652 146.757Z" fill="url(#paint0_linear_43_11)"/>
<path d="M19.425 115.727C22.0067 110.918 24.3006 105.96 26.2945 100.879C28.2889 105.961 30.5828 110.92 33.164 115.731C36.1932 121.592 38.5834 126.225 38.5834 130.437C38.5863 132.086 38.2334 133.717 37.549 135.217C36.8645 136.718 35.8645 138.053 34.6171 139.132C33.2597 140.31 31.6681 141.187 29.9472 141.706C28.2262 142.225 26.4149 142.374 24.6324 142.142C22.3706 141.836 20.237 140.912 18.4662 139.472C16.6955 138.032 15.3561 136.132 14.5954 133.98C12.7767 128.609 15.4188 123.503 19.425 115.727Z" fill="url(#paint1_linear_43_11)"/>
<path d="M53.2194 158.739C55.8012 153.93 58.095 148.972 60.0889 143.891C62.0834 148.973 64.3772 153.932 66.9584 158.742C69.9876 164.604 72.3778 169.237 72.3778 173.449C72.3807 175.098 72.0279 176.728 71.3434 178.229C70.6589 179.729 69.6589 181.064 68.4115 182.143C67.0541 183.321 65.4625 184.199 63.7416 184.718C62.0207 185.237 60.2093 185.385 58.4268 185.154C56.165 184.848 54.0314 183.924 52.2607 182.484C50.4899 181.044 49.1505 179.143 48.3898 176.991C46.5711 171.621 49.2132 166.515 53.2194 158.739Z" fill="url(#paint2_linear_43_11)"/>
<path d="M185.46 133.98C184.7 136.132 183.36 138.032 181.59 139.472C179.819 140.912 177.685 141.836 175.423 142.142C173.641 142.374 171.83 142.225 170.109 141.706C168.388 141.187 166.796 140.31 165.439 139.132C164.191 138.053 163.191 136.718 162.507 135.217C161.822 133.717 161.47 132.086 161.472 130.437C161.472 126.225 163.863 121.592 166.892 115.731C169.474 110.92 171.767 105.961 173.761 100.879C175.755 105.96 178.049 110.918 180.631 115.727C184.637 123.503 187.279 128.609 185.46 133.98Z" fill="url(#paint3_linear_43_11)"/>
<path d="M151.666 176.991C150.905 179.143 149.566 181.044 147.795 182.484C146.024 183.924 143.891 184.848 141.629 185.154C139.846 185.384 138.035 185.235 136.315 184.716C134.594 184.198 133.002 183.321 131.644 182.143C130.397 181.064 129.397 179.729 128.712 178.229C128.028 176.728 127.675 175.098 127.678 173.449C127.678 169.237 130.068 164.604 133.097 158.742C135.679 153.932 137.973 148.973 139.967 143.891C141.961 148.972 144.255 153.93 146.836 158.739C150.843 166.515 153.485 171.621 151.666 176.991Z" fill="url(#paint4_linear_43_11)"/>
<path d="M108.351 53.1095C106.993 54.2877 105.402 55.1652 103.681 55.6841C101.96 56.2031 100.148 56.3517 98.3659 56.1203C96.1041 55.814 93.9705 54.8901 92.1998 53.4499C90.429 52.0098 89.0897 50.1093 88.3289 47.9574C86.5071 42.5871 89.1523 37.4657 93.1585 29.7053C95.7403 24.8963 98.0341 19.9382 100.028 14.8572C102.022 19.9389 104.316 24.898 106.897 29.7083C109.927 35.5701 112.317 40.2031 112.317 44.4151C112.32 46.0642 111.967 47.6946 111.282 49.1951C110.598 50.6955 109.598 52.0307 108.351 53.1095Z" fill="url(#paint5_linear_43_11)"/>
<path d="M20.5709 33.1215C23.9328 26.9544 26.8715 20.5658 29.3667 14C31.8612 20.5661 34.8 26.9547 38.1625 33.1215C41.8307 40.1539 44.7278 45.7054 44.7278 50.8422C44.7285 52.8704 44.2926 54.875 43.4497 56.7198C42.6068 58.5646 41.3767 60.2063 39.843 61.5335C38.1333 63.0086 36.1323 64.1075 33.9701 64.7585C31.8079 65.4095 29.5328 65.5983 27.2929 65.3123C24.4767 64.944 21.8161 63.8078 19.6026 62.0283C17.389 60.2488 15.7077 57.8944 14.7429 55.2232C12.4694 48.6271 15.6983 42.4611 20.5709 33.1215Z" fill="url(#paint6_linear_43_11)"/>
<path d="M156.065 55.2231C153.804 48.6271 157.021 42.4611 161.903 33.1215C165.261 26.9542 168.197 20.5656 170.689 14C173.184 20.5661 176.122 26.9547 179.485 33.1215C183.153 40.1539 186.05 45.7054 186.05 50.8422C186.051 52.8704 185.615 54.875 184.772 56.7198C183.929 58.5646 182.699 60.2063 181.165 61.5335C179.456 63.0091 177.455 64.1083 175.293 64.7593C173.13 65.4104 170.855 65.5988 168.615 65.3123C165.799 64.944 163.139 63.8078 160.925 62.0283C158.711 60.2488 157.03 57.8944 156.065 55.2231Z" fill="url(#paint7_linear_43_11)"/>
<path d="M56.2916 75.7888C58.8734 70.9798 61.1673 66.0217 63.1611 60.9407C65.1556 66.0224 67.4495 70.9815 70.0307 75.7918C73.0599 81.6536 75.4501 86.2866 75.4501 90.4986C75.4529 92.1477 75.1001 93.7781 74.4157 95.2786C73.7312 96.779 72.7312 98.1142 71.4838 99.193C70.1264 100.371 68.5348 101.249 66.8139 101.768C65.0929 102.287 63.2816 102.435 61.4991 102.204C59.2373 101.898 57.1037 100.974 55.3329 99.5334C53.5622 98.0933 52.2228 96.1928 51.4621 94.0409C49.6433 88.6706 52.2855 83.5646 56.2916 75.7888Z" fill="url(#paint8_linear_43_11)"/>
<path d="M148.594 94.0409C147.833 96.1928 146.494 98.0933 144.723 99.5334C142.952 100.974 140.819 101.898 138.557 102.204C136.774 102.435 134.963 102.287 133.242 101.768C131.521 101.249 129.929 100.371 128.572 99.193C127.325 98.1142 126.325 96.779 125.64 95.2786C124.956 93.7781 124.603 92.1477 124.606 90.4986C124.606 86.2866 126.996 81.6536 130.025 75.7918C132.607 70.9818 134.901 66.0227 136.895 60.9407C138.888 66.0217 141.182 70.9798 143.764 75.7888C147.77 83.5646 150.412 88.6706 148.594 94.0409Z" fill="url(#paint9_linear_43_11)"/>
<defs>
<linearGradient id="paint0_linear_43_11" x1="100.037" y1="89.9946" x2="100.037" y2="151.471" gradientUnits="userSpaceOnUse">
<stop stop-color="#D8DEEC"/>
<stop offset="1" stop-color="#A3B5DE"/>
</linearGradient>
<linearGradient id="paint1_linear_43_11" x1="26.2966" y1="100.879" x2="26.2966" y2="142.248" gradientUnits="userSpaceOnUse">
<stop stop-color="#D8DEEC"/>
<stop offset="1" stop-color="#A3B5DE"/>
</linearGradient>
<linearGradient id="paint2_linear_43_11" x1="60.091" y1="143.891" x2="60.091" y2="185.26" gradientUnits="userSpaceOnUse">
<stop stop-color="#D8DEEC"/>
<stop offset="1" stop-color="#A3B5DE"/>
</linearGradient>
<linearGradient id="paint3_linear_43_11" x1="173.759" y1="100.879" x2="173.759" y2="142.248" gradientUnits="userSpaceOnUse">
<stop stop-color="#D8DEEC"/>
<stop offset="1" stop-color="#A3B5DE"/>
</linearGradient>
<linearGradient id="paint4_linear_43_11" x1="139.965" y1="143.891" x2="139.965" y2="185.259" gradientUnits="userSpaceOnUse">
<stop stop-color="#D8DEEC"/>
<stop offset="1" stop-color="#A3B5DE"/>
</linearGradient>
<linearGradient id="paint5_linear_43_11" x1="100.029" y1="14.8572" x2="100.029" y2="56.2262" gradientUnits="userSpaceOnUse">
<stop stop-color="#D8DEEC"/>
<stop offset="1" stop-color="#A3B5DE"/>
</linearGradient>
<linearGradient id="paint6_linear_43_11" x1="29.3639" y1="14" x2="29.3639" y2="65.4419" gradientUnits="userSpaceOnUse">
<stop stop-color="#D8DEEC"/>
<stop offset="1" stop-color="#A3B5DE"/>
</linearGradient>
<linearGradient id="paint7_linear_43_11" x1="170.689" y1="14" x2="170.689" y2="65.4423" gradientUnits="userSpaceOnUse">
<stop stop-color="#D8DEEC"/>
<stop offset="1" stop-color="#A3B5DE"/>
</linearGradient>
<linearGradient id="paint8_linear_43_11" x1="63.1633" y1="60.9407" x2="63.1633" y2="102.31" gradientUnits="userSpaceOnUse">
<stop stop-color="#D8DEEC"/>
<stop offset="1" stop-color="#A3B5DE"/>
</linearGradient>
<linearGradient id="paint9_linear_43_11" x1="136.893" y1="60.9407" x2="136.893" y2="102.31" gradientUnits="userSpaceOnUse">
<stop stop-color="#D8DEEC"/>
<stop offset="1" stop-color="#A3B5DE"/>
</linearGradient>
</defs>
</svg>
