<svg width="400" height="400" viewBox="0 0 400 400" fill="none" xmlns="http://www.w3.org/2000/svg">
<path d="M329.36 163.413C325.505 138.738 304.114 119.8 278.373 119.8C268.69 119.8 259.385 122.479 251.314 127.476C239.035 106.841 216.93 94 192.373 94C154.438 94 123.573 124.864 123.573 162.8C123.573 163.035 123.573 163.279 123.582 163.514C99.2009 167.621 80 188.877 80 214.4C80 242.854 103.719 266 132.173 266H321.373C349.827 266 373.547 242.854 373.547 214.4C373.547 188.659 354.035 167.268 329.36 163.413Z" fill="url(#paint0_linear_7_73)"/>
<path d="M276.36 202.413C272.505 177.738 251.114 158.8 225.373 158.8C215.69 158.8 206.385 161.479 198.314 166.476C186.035 145.841 163.93 133 139.373 133C101.438 133 70.5733 163.864 70.5733 201.8C70.5733 202.035 70.5733 202.279 70.5819 202.514C46.2009 206.621 27 227.877 27 253.4C27 281.854 50.7194 305 79.1733 305H268.373C296.827 305 320.547 281.854 320.547 253.4C320.547 227.659 301.035 206.268 276.36 202.413Z" fill="url(#paint1_linear_7_73)"/>
<defs>
<linearGradient id="paint0_linear_7_73" x1="226.773" y1="94" x2="226.773" y2="266" gradientUnits="userSpaceOnUse">
<stop stop-color="#7D89A7"/>
<stop offset="1" stop-color="#2F384D"/>
</linearGradient>
<linearGradient id="paint1_linear_7_73" x1="173.773" y1="133" x2="173.773" y2="305" gradientUnits="userSpaceOnUse">
<stop stop-color="#D8DEEC"/>
<stop offset="1" stop-color="#A3B5DE"/>
</linearGradient>
</defs>
</svg>
