<svg width="400" height="400" viewBox="0 0 400 400" fill="none" xmlns="http://www.w3.org/2000/svg">
<circle cx="241.573" cy="190" r="110" fill="url(#paint0_radial_7_52)"/>
<path d="M298.36 216.413C294.505 191.738 273.114 172.8 247.373 172.8C237.69 172.8 228.385 175.479 220.314 180.476C208.035 159.841 185.93 147 161.373 147C123.438 147 92.5733 177.864 92.5733 215.8C92.5733 216.035 92.5733 216.279 92.5819 216.514C68.2009 220.621 49 241.877 49 267.4C49 295.854 72.7194 319 101.173 319H290.373C318.827 319 342.547 295.854 342.547 267.4C342.547 241.659 323.035 220.268 298.36 216.413Z" fill="url(#paint1_linear_7_52)"/>
<defs>
<radialGradient id="paint0_radial_7_52" cx="0" cy="0" r="1" gradientUnits="userSpaceOnUse" gradientTransform="translate(241.573 128) rotate(90) scale(172)">
<stop stop-color="#FF9B54"/>
<stop offset="1" stop-color="#FF7F51"/>
</radialGradient>
<linearGradient id="paint1_linear_7_52" x1="195.773" y1="147" x2="195.773" y2="319" gradientUnits="userSpaceOnUse">
<stop stop-color="#D8DEEC"/>
<stop offset="1" stop-color="#A3B5DE"/>
</linearGradient>
</defs>
</svg>
