<svg width="400" height="400" viewBox="0 0 400 400" fill="none" xmlns="http://www.w3.org/2000/svg">
<path d="M248.419 117.122C248.419 111.532 243.887 107 238.297 107H63.1221C57.532 107 53 111.532 53 117.122C53 122.712 57.532 127.244 63.1221 127.244H238.297C243.887 127.244 248.419 122.712 248.419 117.122Z" fill="url(#paint0_linear_7_613)"/>
<path d="M336.324 148.582H132.13C126.54 148.582 122.008 153.114 122.008 158.704C122.008 164.294 126.54 168.826 132.13 168.826H336.324C341.914 168.826 346.446 164.294 346.446 158.704C346.446 153.114 341.914 148.582 336.324 148.582Z" fill="url(#paint1_linear_7_613)"/>
<path d="M288.547 210.406C294.137 210.406 298.669 205.874 298.669 200.284C298.669 194.693 294.137 190.161 288.547 190.161H83.2934C77.7033 190.161 73.1713 194.693 73.1713 200.284C73.1713 205.874 77.7033 210.406 83.2934 210.406H288.547Z" fill="url(#paint2_linear_7_613)"/>
<path d="M322.167 231.743H117.267C111.677 231.743 107.145 236.275 107.145 241.865C107.145 247.455 111.677 251.987 117.267 251.987H322.167C327.758 251.987 332.29 247.455 332.29 241.865C332.29 236.275 327.758 231.743 322.167 231.743Z" fill="url(#paint3_linear_7_613)"/>
<path d="M222.726 273.326H86.832C81.2419 273.326 76.7099 277.858 76.7099 283.448C76.7099 289.038 81.2419 293.57 86.832 293.57H222.724C228.314 293.57 232.846 289.038 232.846 283.448C232.848 277.858 228.316 273.326 222.726 273.326Z" fill="url(#paint4_linear_7_613)"/>
<defs>
<linearGradient id="paint0_linear_7_613" x1="199.723" y1="107" x2="199.723" y2="293.57" gradientUnits="userSpaceOnUse">
<stop stop-color="#C8C8C8"/>
<stop offset="1" stop-color="#919191"/>
</linearGradient>
<linearGradient id="paint1_linear_7_613" x1="199.723" y1="107" x2="199.723" y2="293.57" gradientUnits="userSpaceOnUse">
<stop stop-color="#C8C8C8"/>
<stop offset="1" stop-color="#919191"/>
</linearGradient>
<linearGradient id="paint2_linear_7_613" x1="199.723" y1="107" x2="199.723" y2="293.57" gradientUnits="userSpaceOnUse">
<stop stop-color="#C8C8C8"/>
<stop offset="1" stop-color="#919191"/>
</linearGradient>
<linearGradient id="paint3_linear_7_613" x1="199.723" y1="107" x2="199.723" y2="293.57" gradientUnits="userSpaceOnUse">
<stop stop-color="#C8C8C8"/>
<stop offset="1" stop-color="#919191"/>
</linearGradient>
<linearGradient id="paint4_linear_7_613" x1="199.723" y1="107" x2="199.723" y2="293.57" gradientUnits="userSpaceOnUse">
<stop stop-color="#C8C8C8"/>
<stop offset="1" stop-color="#919191"/>
</linearGradient>
</defs>
</svg>
