<svg width="400" height="400" viewBox="0 0 400 400" fill="none" xmlns="http://www.w3.org/2000/svg">
<path d="M302.36 183.413C298.505 158.738 277.114 139.8 251.373 139.8C241.69 139.8 232.385 142.479 224.314 147.476C212.035 126.841 189.93 114 165.373 114C127.438 114 96.5733 144.864 96.5733 182.8C96.5733 183.035 96.5733 183.279 96.5819 183.514C72.2009 187.621 53 208.877 53 234.4C53 262.854 76.7194 286 105.173 286H294.373C322.827 286 346.547 262.854 346.547 234.4C346.547 208.659 327.035 187.268 302.36 183.413Z" fill="url(#paint0_linear_7_594)"/>
<defs>
<linearGradient id="paint0_linear_7_594" x1="199.773" y1="114" x2="199.773" y2="286" gradientUnits="userSpaceOnUse">
<stop stop-color="#7D89A7"/>
<stop offset="1" stop-color="#2F384D"/>
</linearGradient>
</defs>
</svg>
