<svg width="400" height="400" viewBox="0 0 400 400" fill="none" xmlns="http://www.w3.org/2000/svg">
<path d="M302.608 249.626L277.825 235.318L299.302 222.654C303.263 220.318 304.581 215.214 302.245 211.252C299.909 207.292 294.806 205.975 290.843 208.309L261.259 225.754L216.652 199.999L261.251 174.25L290.845 191.692C292.171 192.475 293.628 192.845 295.064 192.845C297.915 192.845 300.692 191.38 302.245 188.745C304.58 184.784 303.261 179.68 299.3 177.344L277.82 164.684L302.608 150.373C306.59 148.073 307.955 142.981 305.656 138.999C303.356 135.015 298.264 133.651 294.282 135.951L269.499 150.26L269.273 125.324C269.232 120.726 265.46 117.01 260.873 117.073C256.274 117.114 252.579 120.876 252.622 125.474L252.931 159.825L208.327 185.578V134.076L238.232 117.174C242.236 114.912 243.647 109.833 241.384 105.828C239.122 101.825 234.041 100.413 230.038 102.676L208.327 114.947V86.3265C208.327 81.728 204.599 78 200.001 78C195.402 78 191.674 81.728 191.674 86.3265V114.947L169.963 102.677C165.957 100.414 160.881 101.825 158.617 105.829C156.354 109.833 157.765 114.913 161.769 117.175L191.673 134.077V185.578L147.069 159.825L147.378 125.474C147.421 120.876 143.726 117.114 139.127 117.073C139.102 117.073 139.077 117.073 139.051 117.073C134.488 117.073 130.768 120.751 130.727 125.325L130.501 150.26L105.718 135.951C101.736 133.651 96.6435 135.016 94.3443 138.999C92.0451 142.981 93.4095 148.073 97.3918 150.373L122.179 164.684L100.696 177.346C96.7346 179.681 95.4156 184.785 97.7504 188.748C99.3035 191.382 102.08 192.848 104.932 192.848C106.369 192.848 107.824 192.476 109.152 191.694L138.749 174.252L183.349 200.002L138.741 225.756L109.152 208.308C105.193 205.973 100.086 207.29 97.7504 211.251C95.4145 215.212 96.7323 220.317 100.694 222.652L122.174 235.317L97.3907 249.625C93.4084 251.924 92.044 257.017 94.3432 260.999C95.8852 263.67 98.6841 265.164 101.562 265.164C102.974 265.164 104.406 264.804 105.717 264.047L130.5 249.737L130.725 274.675C130.767 279.247 134.487 282.927 139.05 282.927C139.075 282.927 139.101 282.927 139.126 282.926C143.725 282.884 147.419 279.123 147.377 274.525L147.068 240.173L191.673 214.42V265.923L161.769 282.825C157.765 285.087 156.354 290.166 158.617 294.171C160.148 296.88 162.969 298.402 165.873 298.402C167.261 298.402 168.669 298.054 169.963 297.323L191.674 285.053V313.674C191.674 318.272 195.402 322 200.001 322C204.599 322 208.327 318.272 208.327 313.674V285.053L230.038 297.323C231.333 298.054 232.739 298.402 234.128 298.402C237.032 298.402 239.853 296.88 241.384 294.171C243.647 290.167 242.236 285.087 238.232 282.825L208.327 265.923V214.421L252.931 240.173L252.614 274.524C252.571 279.122 256.264 282.884 260.863 282.927C260.889 282.928 260.915 282.928 260.941 282.928C265.503 282.928 269.224 279.25 269.266 274.678L269.497 249.737L294.283 264.048C295.594 264.805 297.026 265.165 298.438 265.165C301.316 265.165 304.115 263.67 305.657 261C307.956 257.018 306.592 251.926 302.608 249.626Z" fill="url(#paint0_linear_7_83)"/>
<defs>
<linearGradient id="paint0_linear_7_83" x1="200" y1="78" x2="200" y2="322" gradientUnits="userSpaceOnUse">
<stop stop-color="#D8DEEC"/>
<stop offset="1" stop-color="#A3B5DE"/>
</linearGradient>
</defs>
</svg>
